<svg width="683" height="683" viewBox="0 0 683 683" fill="none" xmlns="http://www.w3.org/2000/svg">
<g clip-path="url(#clip0_301_2)">
<path d="M235.067 1.86664C211.2 7.86664 191.867 26.5333 184.667 50.2666C180 65.7333 183.467 89.2 192.533 104C195.333 108.4 197.333 112.533 197.067 113.2C196.8 113.867 176.8 138 152.533 166.933C128.133 195.733 107.067 220.8 105.6 222.533L103.067 225.867L94.9333 222.267C85.0667 217.867 70 215.733 59.2 217.333C43.3333 219.6 32.2667 225.2 20.8 236.4C-15.3333 272 -1.60001 332 46.4 348.8C70 356.933 98.1333 350.667 115.333 333.467C123.2 325.467 128.533 317.733 132.267 308.267C134.667 301.867 135.2 298 135.2 284.667C135.333 266.8 133.2 259.333 124.667 246.933L120.267 240.533L167.733 184.133C202 143.333 215.733 128 217.2 128.533C218.4 128.933 223.867 130.8 229.333 132.8C238.4 136 240.667 136.267 253.333 135.6C269.733 134.933 281.733 130.667 292.533 121.733C294.667 120 297.2 118.8 298.133 119.2C299.067 119.6 316 132 335.733 146.8L371.733 173.733L369.333 179.467C365.067 189.467 363.333 203.6 365.2 214.8C370.133 245.6 393.867 268.4 424.8 272.267C435.467 273.6 437.733 273.467 447.733 270.933C471.467 264.933 486.667 251.333 496.4 228C500 219.2 500.933 199.067 498.133 188.133C496.667 182.4 496.4 179.067 497.333 178.133C498 177.467 513.2 167.733 530.933 156.533L563.333 136.267L568 140.667C580.533 152.4 596.4 158.667 613.867 158.667C630.533 158.667 642 154.8 655.467 144.933C682.4 125.067 690.267 87.4666 673.6 57.7333C663.867 40.2666 644.4 26.9333 624.133 23.8666C590 18.8 557.467 40.2666 548.533 74C546.133 82.9333 546.133 98.9333 548.667 108.533C549.733 112.8 550.4 116.667 550 117.2C549.2 118.533 488 156.933 484.8 158.133C483.333 158.667 480.667 157.2 476.8 153.6C464.933 142.667 450.133 137.333 431.333 137.333C416.8 137.333 404.533 141.2 392.933 149.333C388 152.8 384.667 154.4 383.467 153.733C382.533 153.2 365.733 140.667 346.267 126.133L310.933 99.6L313.333 94.1333C328.267 58.9333 309.067 16.6666 272.133 3.73331C262.533 0.399976 244.267 -0.533358 235.067 1.86664ZM268.667 27.2C294.267 38.9333 303.333 70 287.867 93.2C271.867 117.2 238.933 120.4 218.533 100.133C198.533 80 201.467 47.3333 224.667 31.2C237.733 22.2666 254.533 20.6666 268.667 27.2ZM634.133 50.8C652.533 59.6 662.667 79.8667 658.667 99.4667C656.533 109.867 653.067 116.4 646.133 123.2C637.333 131.6 629.2 135.067 616.667 135.733C602 136.4 592.8 132.933 582.533 122.8C572.533 112.8 568.933 103.333 569.6 89.3333C571.2 56.1333 604.267 36.4 634.133 50.8ZM448.933 162.8C459.467 166.667 470.533 177.867 474.533 188.8C482.533 209.867 472.8 235.2 452.8 245.2C422.933 260 387.733 239.067 387.467 206.133C387.467 194.4 389.467 187.467 395.067 179.2C399.733 172.533 411.067 163.867 418 161.6C425.467 159.2 440.667 159.733 448.933 162.8ZM82.6667 241.6C106.267 249.067 119.467 276.933 110.533 300.667C106.4 311.6 95.6 322.4 84.6667 326.533C73.7333 330.667 58.2667 330.133 48.8 325.333C39.6 320.667 31.0667 311.867 26.9333 302.933C22 292.133 22 277.067 26.8 266.667C37.0667 244.667 59.8667 234.4 82.6667 241.6Z" fill="#172957"/>
<path d="M574.533 308C571.2 308.533 566.533 310 564.4 311.2C558.667 314.133 549.6 324.8 548 330.533C546.533 335.733 546 672.8 547.467 676.667C549.733 682.4 552.667 682.667 615.333 682.667H674.933L678.8 678.8L682.667 674.933V505.733C682.667 319.733 683.067 330 674.667 319.733C672.4 317.067 667.2 313.2 662.933 311.067L655.333 307.333L618 307.067C597.467 306.933 577.867 307.333 574.533 308ZM654 331.467C660.133 333.867 660 329.6 660 500V660H614.667H569.333V498.4V336.8L572.267 333.733L575.067 330.667H613.467C634.533 330.667 652.8 331.067 654 331.467Z" fill="#172957"/>
<path d="M211.067 330.667C207.2 331.2 202 333.067 199.467 334.667C192.933 338.533 185.6 347.467 184 353.2C182.533 358.4 182 672.933 183.467 676.667C185.733 682.4 188.667 682.667 251.333 682.667H310.933L314.8 678.8L318.667 674.8L318.4 515.067L318 355.333L314.667 348.8C310.933 341.333 305.867 336.667 297.333 332.8C291.733 330.267 288.667 330 254.667 329.733C234.533 329.6 214.933 330 211.067 330.667ZM290 354.133C296.133 356.533 296 353.067 296 511.333V660H250.667H205.333V509.733V359.467L208.267 356.4L211.067 353.333H249.467C270.533 353.333 288.8 353.733 290 354.133Z" fill="#172957"/>
<path d="M386.533 400.533C379.067 403.2 372.8 408.667 368.533 416.267L364.667 423.333L364.267 549.067L364 674.8L367.867 678.8L371.733 682.667H431.333C494 682.667 496.933 682.4 499.2 676.667C499.6 675.467 500 618.267 500 549.6C500 426.8 499.867 424.533 497.2 418.667C493.6 410.667 488.667 405.6 480.667 401.867C474.133 398.8 473.333 398.667 432.667 398.8C402.533 398.8 390 399.2 386.533 400.533ZM474 424.667L477.333 427.867V544V660H432H386.667V545.2C386.667 460.533 387.067 429.733 388.267 427.6C391.467 421.467 392.133 421.467 432.4 421.333H470.8L474 424.667Z" fill="#172957"/>
<path d="M21.3333 492.133C14 495.467 7.33332 501.6 3.59999 508.667C0.666653 514 0.666653 514.933 0.266653 594.4L-0.133347 674.8L3.86665 678.667L7.73332 682.667H67.3333C130 682.667 132.933 682.4 135.2 676.667C135.6 675.467 136 638.667 136 594.8V515.2L132.533 508.267C130.667 504.4 126.933 499.6 124.267 497.333C115.2 489.867 111.467 489.333 67.4666 489.333C30 489.333 26.9333 489.6 21.3333 492.133ZM107.867 514C110 515.067 112 516.933 112.533 518C112.933 519.2 113.333 551.733 113.333 590.133V660H68H22.5333L22.9333 589.2L23.3333 518.4L27.0667 515.2L30.8 512H67.4666C97.0666 512 104.8 512.4 107.867 514Z" fill="#172957"/>
</g>
<defs>
<clipPath id="clip0_301_2">
<rect width="682.667" height="682.667" fill="white"/>
</clipPath>
</defs>
</svg>
