<?xml version="1.0" encoding="UTF-8"?> <svg xmlns="http://www.w3.org/2000/svg" viewBox="0 0 558.45 330.75"><defs><style>.a{fill:#001c5e;}</style></defs><title>BQ-fav-icon</title><path class="a" d="M11.83,59.63q-16-20-43.43-28.13Q-8.65,21.15,2.83.68a86.67,86.67,0,0,0,11.47-43A89.4,89.4,0,0,0,9.13-72.23,85.87,85.87,0,0,0-5.5-98.32,75.14,75.14,0,0,0-28.45-117a63,63,0,0,0-30.15-7.2H-244V195.3H-86.95a200.85,200.85,0,0,0,44.33-4.72A116.59,116.59,0,0,0-5.95,176,72.93,72.93,0,0,0,18.8,150.53q9-15.53,9-37.13,0-33.75-16-53.77Zm-80.55,55.12a26.11,26.11,0,0,1-18.23,6.75h-69.3V68H-83.8a19.83,19.83,0,0,1,16.2,7.88q6.3,7.88,6.3,19.57,0,12.6-7.42,19.35ZM-93.7-49.5a21.58,21.58,0,0,1,14.85,5.63q6.3,5.63,6.3,18.67,0,14.85-7.42,19.8a29,29,0,0,1-16.43,5h-59.85v-49Z" transform="translate(244 126)"></path><path class="a" d="M107.64,117.23A79.47,79.47,0,0,1,82.12,98.55a84.67,84.67,0,0,1-16.5-27.22A91.35,91.35,0,0,1,59.75,38.7v-.9A93.14,93.14,0,0,1,65.37,5.4a82.06,82.06,0,0,1,16.2-27,80,80,0,0,1,25.2-18.67,74.85,74.85,0,0,1,32.63-7,77.78,77.78,0,0,1,33.07,7,79.58,79.58,0,0,1,25.88,18.9A85.25,85.25,0,0,1,215,6.08a91.72,91.72,0,0,1,5.85,32.62v.9a90.93,90.93,0,0,1-4.95,30.6L173.15,31.5,129.05,81l43.65,37.35a89.4,89.4,0,0,1-32.08,5.85,76.86,76.86,0,0,1-33-7Zm162.71,87.52,44.1-49.05-32.4-27.45A154,154,0,0,0,302.75,86,159.91,159.91,0,0,0,310,37.8v-.9a158.32,158.32,0,0,0-12.82-63.45A161.09,161.09,0,0,0,261.8-78.3a166.05,166.05,0,0,0-53.55-34.87Q177.2-126,140.75-126t-67.5,12.83a169.45,169.45,0,0,0-54,35.1,159.45,159.45,0,0,0-35.78,52.2A159.9,159.9,0,0,0-29.35,37.8v.9a158.32,158.32,0,0,0,12.82,63.45A161.09,161.09,0,0,0,18.8,153.9a166.24,166.24,0,0,0,53.55,34.88q31.05,12.83,67.5,12.82a174.6,174.6,0,0,0,51.3-7.42A177.53,177.53,0,0,0,235.7,173.7l34.65,31.05Z" transform="translate(244 126)"></path></svg> 